<svg width="285" height="175" viewBox="0 0 285 175" fill="none" xmlns="http://www.w3.org/2000/svg">
    <path d="M0 8a8 8 0 0 1 8-8h269a8 8 0 0 1 8 8v167H0V8z" fill="url(#h34vf561za)"/>
    <path d="M31.631 41h-2.01V28.654h6.975v1.706h-4.965v3.85h4.645v1.698H31.63V41zm10.18-9.525c1.182 0 2.074.261 2.677.785.608.524.912 1.34.912 2.449V41h-1.41l-.38-1.326h-.068a4.82 4.82 0 0 1-.82.836 2.86 2.86 0 0 1-.979.49c-.366.113-.813.169-1.343.169-.557 0-1.055-.101-1.494-.304a2.375 2.375 0 0 1-1.039-.946c-.253-.422-.38-.957-.38-1.604 0-.963.358-1.686 1.073-2.17.72-.485 1.807-.752 3.26-.803l1.62-.059v-.49c0-.647-.151-1.109-.456-1.385-.298-.275-.72-.413-1.266-.413-.468 0-.92.067-1.36.202-.439.136-.867.302-1.283.499l-.642-1.402c.456-.242.974-.44 1.554-.591a7.23 7.23 0 0 1 1.824-.228zm1.621 5.058-1.208.042c-.99.034-1.686.203-2.085.507-.4.304-.6.72-.6 1.25 0 .461.138.799.414 1.013.276.208.639.312 1.09.312.686 0 1.255-.194 1.705-.582.456-.394.684-.971.684-1.731v-.811zm6.236-8.673v6.35c0 .288-.011.603-.034.947-.022.337-.045.655-.067.954h.042c.146-.197.32-.428.523-.693.209-.264.406-.495.592-.692l2.854-3.074h2.28l-3.741 4.02L56.103 41h-2.331l-2.99-4.104-1.114.954V41h-1.984V27.86h1.984zm11.16 3.615c.832 0 1.547.171 2.144.515.597.343 1.056.83 1.377 1.46.32.631.48 1.386.48 2.264v1.064h-6.24c.023.906.265 1.604.727 2.094.467.49 1.12.735 1.959.735.596 0 1.131-.057 1.604-.17.479-.117.971-.29 1.478-.514v1.613c-.467.22-.943.38-1.427.48-.484.102-1.064.153-1.74.153-.917 0-1.725-.177-2.423-.532a3.892 3.892 0 0 1-1.63-1.605c-.388-.709-.583-1.59-.583-2.643 0-1.047.178-1.936.532-2.668.355-.732.853-1.29 1.495-1.672.642-.383 1.39-.574 2.246-.574zm0 1.494c-.626 0-1.132.203-1.52.608-.384.406-.609 1-.676 1.782h4.256a3.273 3.273 0 0 0-.237-1.241 1.8 1.8 0 0 0-.675-.845c-.299-.202-.681-.304-1.149-.304zm14.929 1.326h4.61v6.198c-.647.214-1.317.38-2.01.499-.692.118-1.469.177-2.33.177-1.255 0-2.32-.248-3.192-.743-.867-.501-1.526-1.225-1.976-2.17-.45-.952-.676-2.098-.676-3.437 0-1.29.25-2.407.752-3.353a5.227 5.227 0 0 1 2.187-2.204c.957-.523 2.117-.785 3.48-.785.669 0 1.316.067 1.941.203.63.13 1.208.31 1.731.54l-.709 1.672a8.003 8.003 0 0 0-1.402-.498 6.364 6.364 0 0 0-1.613-.203c-.883 0-1.646.192-2.288.574a3.803 3.803 0 0 0-1.47 1.622c-.343.692-.514 1.511-.514 2.457 0 .918.137 1.723.413 2.415.276.693.707 1.233 1.292 1.621.591.383 1.354.575 2.289.575.467 0 .864-.026 1.19-.076.327-.051.628-.107.904-.17v-3.183h-2.61v-1.73zm15.018-2.643V41h-1.562l-.27-1.258h-.11c-.197.32-.448.588-.752.802a3.325 3.325 0 0 1-1.013.464c-.372.107-.763.16-1.174.16-.704 0-1.306-.117-1.807-.354a2.51 2.51 0 0 1-1.14-1.114c-.265-.502-.397-1.149-.397-1.943v-6.105h1.993v5.734c0 .726.146 1.27.439 1.63.298.36.76.54 1.385.54.602 0 1.08-.124 1.435-.371.355-.248.606-.614.752-1.098.152-.485.228-1.078.228-1.782v-4.653h1.993zm4.336 0V41h-1.985v-9.348h1.985zm-.98-3.58c.304 0 .566.081.786.245.225.163.337.444.337.844 0 .394-.112.675-.337.844-.22.164-.482.245-.786.245-.315 0-.582-.081-.802-.245-.214-.168-.32-.45-.32-.844 0-.4.106-.681.32-.845.22-.163.487-.244.802-.244zm6.473 13.097c-1.115 0-2.01-.405-2.685-1.216-.67-.816-1.005-2.018-1.005-3.606 0-1.604.34-2.818 1.022-3.64.686-.821 1.59-1.232 2.71-1.232.473 0 .887.064 1.241.194.355.124.659.293.912.507.259.213.479.453.659.717h.093a20.058 20.058 0 0 1-.101-.751 9.083 9.083 0 0 1-.051-.92V27.86h1.993V41h-1.554l-.355-1.275h-.084c-.169.27-.383.515-.642.735a2.977 2.977 0 0 1-.912.515c-.349.13-.763.194-1.241.194zm.557-1.613c.85 0 1.45-.245 1.799-.735s.529-1.224.54-2.204v-.261c0-1.047-.169-1.85-.506-2.407-.338-.563-.955-.844-1.85-.844-.715 0-1.26.29-1.638.87-.371.573-.557 1.376-.557 2.406 0 1.03.186 1.818.557 2.364.377.54.929.811 1.655.811zm10.307-8.081c.833 0 1.548.171 2.144.515.597.343 1.056.83 1.377 1.46.321.631.481 1.386.481 2.264v1.064h-6.24c.022.906.264 1.604.726 2.094.467.49 1.12.735 1.959.735.597 0 1.132-.057 1.605-.17.478-.117.971-.29 1.477-.514v1.613c-.467.22-.943.38-1.427.48-.484.102-1.064.153-1.739.153-.918 0-1.726-.177-2.424-.532a3.894 3.894 0 0 1-1.63-1.605c-.388-.709-.582-1.59-.582-2.643 0-1.047.177-1.936.532-2.668.354-.732.853-1.29 1.494-1.672.642-.383 1.391-.574 2.247-.574zm0 1.494c-.625 0-1.132.203-1.52.608-.383.406-.608 1-.676 1.782h4.256a3.28 3.28 0 0 0-.236-1.241 1.805 1.805 0 0 0-.676-.845c-.298-.202-.681-.304-1.148-.304zm5.459 6.984c0-.462.118-.785.354-.971.242-.192.535-.287.879-.287.343 0 .636.095.878.287.247.186.371.51.371.97 0 .451-.124.778-.371.98a1.346 1.346 0 0 1-.878.296c-.344 0-.637-.099-.879-.296-.236-.202-.354-.529-.354-.98zm0-7.229c0-.467.118-.796.354-.987.242-.192.535-.288.879-.288.343 0 .636.096.878.287.247.192.371.521.371.988 0 .445-.124.769-.371.972a1.347 1.347 0 0 1-.878.295c-.344 0-.637-.098-.879-.295-.236-.203-.354-.527-.354-.971zm-87.23 17.93h3.488c1.638 0 2.823.245 3.555.735.732.49 1.098 1.264 1.098 2.322 0 .732-.206 1.337-.617 1.816-.405.473-.999.78-1.781.92v.085c1.874.32 2.812 1.306 2.812 2.955 0 1.103-.375 1.965-1.124 2.584-.743.62-1.784.929-3.124.929h-4.307V50.654zm1.436 5.286h2.364c1.014 0 1.743-.157 2.187-.472.445-.321.668-.859.668-1.613 0-.693-.248-1.19-.744-1.495-.495-.31-1.283-.464-2.364-.464h-2.111v4.044zm0 1.217v4.619h2.575c.997 0 1.746-.192 2.247-.575.506-.388.76-.993.76-1.815 0-.766-.26-1.329-.777-1.69-.513-.36-1.295-.54-2.348-.54h-2.457zm12.983 6.012c-1.368 0-2.449-.417-3.243-1.25-.788-.833-1.182-1.99-1.182-3.47 0-1.492.366-2.677 1.098-3.556.737-.878 1.725-1.317 2.964-1.317 1.16 0 2.077.383 2.753 1.148.675.76 1.013 1.765 1.013 3.015v.887h-6.375c.028 1.086.3 1.911.819 2.474.523.563 1.258.844 2.204.844.996 0 1.981-.208 2.955-.624v1.25a7.157 7.157 0 0 1-1.41.455c-.44.096-.971.144-1.596.144zm-.38-8.42c-.743 0-1.337.243-1.782.727-.439.484-.698 1.154-.777 2.01h4.839c0-.884-.197-1.56-.591-2.027-.394-.473-.957-.71-1.689-.71zm9.386 8.42c-1.34 0-2.379-.411-3.116-1.233-.732-.828-1.098-1.996-1.098-3.504 0-1.549.372-2.745 1.115-3.59.748-.844 1.813-1.266 3.192-1.266.444 0 .89.048 1.334.144.445.095.794.208 1.047.337l-.43 1.191a6.31 6.31 0 0 0-1.014-.304 4.383 4.383 0 0 0-.971-.127c-1.88 0-2.82 1.2-2.82 3.598 0 1.137.228 2.01.684 2.617.461.609 1.142.913 2.043.913.771 0 1.562-.167 2.373-.499v1.242c-.62.32-1.399.48-2.34.48zm12.037-4.805c0 1.509-.38 2.688-1.14 3.538-.76.845-1.81 1.267-3.15 1.267-.827 0-1.562-.194-2.203-.583-.642-.388-1.138-.945-1.487-1.672-.349-.726-.523-1.576-.523-2.55 0-1.509.377-2.682 1.131-3.521.755-.845 1.802-1.267 3.142-1.267 1.294 0 2.322.43 3.082 1.292.765.861 1.148 2.027 1.148 3.496zm-7.05 0c0 1.182.236 2.083.709 2.702.472.62 1.168.93 2.085.93.918 0 1.613-.308 2.086-.921.479-.62.718-1.523.718-2.711 0-1.177-.24-2.069-.718-2.677-.473-.613-1.174-.92-2.103-.92-.917 0-1.61.3-2.077.903-.467.603-.7 1.5-.7 2.694zM78.927 63v-6.02c0-.738-.158-1.29-.473-1.656-.316-.371-.805-.557-1.47-.557-.872 0-1.517.25-1.933.751-.417.501-.625 1.273-.625 2.314V63h-1.402v-6.02c0-.738-.158-1.29-.473-1.656-.315-.371-.808-.557-1.478-.557-.878 0-1.522.264-1.933.793-.406.524-.608 1.385-.608 2.584V63H67.13v-9.255h1.14l.228 1.267h.067a2.76 2.76 0 0 1 1.115-1.056 3.443 3.443 0 0 1 1.621-.38c1.447 0 2.393.524 2.838 1.57h.067a2.952 2.952 0 0 1 1.2-1.148c.523-.281 1.12-.422 1.79-.422 1.047 0 1.83.27 2.347.81.524.535.785 1.394.785 2.576V63h-1.401zm5.206 0h-1.402v-9.255h1.401V63zm-1.52-11.763c0-.32.078-.555.236-.7a.818.818 0 0 1 .591-.229c.225 0 .42.076.583.228.163.152.245.386.245.701 0 .315-.082.552-.245.71a.826.826 0 0 1-.583.227.818.818 0 0 1-.591-.228c-.158-.157-.236-.394-.236-.709zM92.945 63v-5.987c0-.754-.172-1.317-.515-1.689-.343-.371-.881-.557-1.613-.557-.968 0-1.677.261-2.128.785-.45.524-.675 1.388-.675 2.593V63h-1.402v-9.255h1.14l.228 1.267h.067c.288-.456.69-.808 1.208-1.056a3.886 3.886 0 0 1 1.731-.38c1.115 0 1.953.27 2.516.81.563.535.845 1.394.845 2.576V63h-1.402zm11.37-9.255v.887l-1.714.202c.158.197.299.456.422.777.124.315.186.673.186 1.073 0 .906-.309 1.63-.929 2.17-.619.54-1.469.81-2.55.81a4.25 4.25 0 0 1-.777-.067c-.597.315-.895.712-.895 1.19 0 .254.104.443.313.566.208.119.565.178 1.072.178h1.638c1.002 0 1.771.21 2.305.633.541.422.811 1.036.811 1.84 0 1.025-.411 1.805-1.233 2.34-.822.54-2.021.81-3.597.81-1.21 0-2.145-.224-2.804-.675-.653-.45-.98-1.086-.98-1.908 0-.563.181-1.05.541-1.461.36-.411.867-.69 1.52-.836a1.497 1.497 0 0 1-.6-.498 1.335 1.335 0 0 1-.236-.786c0-.337.09-.633.27-.886.18-.254.465-.499.853-.735-.478-.197-.87-.532-1.173-1.005a2.974 2.974 0 0 1-.448-1.621c0-1.014.304-1.793.912-2.34.608-.551 1.47-.827 2.584-.827.484 0 .92.056 1.309.169h3.2zm-7.38 10.809c0 .5.211.88.633 1.14.422.259 1.028.388 1.816.388 1.176 0 2.046-.177 2.609-.532.569-.349.853-.825.853-1.427 0-.5-.155-.85-.464-1.047-.31-.191-.893-.287-1.748-.287h-1.68c-.637 0-1.132.152-1.487.456-.355.304-.532.74-.532 1.309zm.76-7.845c0 .647.183 1.137.549 1.47.366.331.875.497 1.528.497 1.368 0 2.052-.664 2.052-1.992 0-1.39-.692-2.086-2.077-2.086-.659 0-1.165.177-1.52.532-.355.354-.532.88-.532 1.579zM115.411 63l-.279-1.317h-.067c-.462.58-.923.974-1.385 1.182-.456.203-1.027.304-1.714.304-.918 0-1.638-.237-2.162-.71-.518-.472-.777-1.145-.777-2.018 0-1.869 1.495-2.848 4.484-2.938l1.571-.051v-.574c0-.726-.158-1.261-.473-1.605-.31-.349-.808-.523-1.495-.523-.771 0-1.644.236-2.618.71l-.43-1.073a6.605 6.605 0 0 1 1.494-.583 6.544 6.544 0 0 1 1.639-.211c1.103 0 1.919.245 2.448.735.535.49.803 1.275.803 2.356V63h-1.039zm-3.167-.988c.873 0 1.557-.24 2.052-.718.501-.478.752-1.148.752-2.01v-.835l-1.402.059c-1.114.039-1.92.213-2.415.523-.49.304-.735.78-.735 1.427 0 .507.152.892.456 1.157.31.265.741.397 1.292.397zM29.697 72.654h3.488c1.638 0 2.823.245 3.555.735.732.49 1.098 1.264 1.098 2.322 0 .732-.206 1.337-.617 1.816-.405.473-.999.78-1.781.92v.085c1.874.32 2.812 1.306 2.812 2.955 0 1.104-.375 1.965-1.124 2.584-.743.62-1.784.929-3.124.929h-4.307V72.654zm1.436 5.287h2.364c1.014 0 1.743-.158 2.187-.473.445-.321.668-.859.668-1.613 0-.693-.248-1.19-.744-1.495-.495-.31-1.283-.464-2.364-.464h-2.111v4.044zm0 1.215v4.62h2.575c.997 0 1.746-.192 2.247-.575.506-.388.76-.993.76-1.815 0-.766-.26-1.329-.777-1.69-.513-.36-1.295-.54-2.348-.54h-2.457zm12.983 6.013c-1.368 0-2.449-.417-3.243-1.25-.788-.833-1.182-1.99-1.182-3.47 0-1.492.366-2.677 1.098-3.556.737-.878 1.725-1.317 2.964-1.317 1.16 0 2.077.383 2.753 1.149.675.76 1.013 1.764 1.013 3.014v.887h-6.375c.028 1.086.3 1.911.819 2.474.523.563 1.258.845 2.204.845.996 0 1.981-.209 2.955-.625v1.25a7.157 7.157 0 0 1-1.41.455c-.44.096-.971.144-1.596.144zm-.38-8.42c-.743 0-1.337.243-1.782.727-.439.484-.698 1.154-.777 2.01h4.839c0-.884-.197-1.56-.591-2.027-.394-.473-.957-.71-1.689-.71zm8.677 7.263c.247 0 .487-.017.717-.05.231-.04.414-.08.55-.119v1.073c-.153.073-.378.132-.676.177-.293.05-.558.076-.794.076-1.79 0-2.685-.943-2.685-2.829v-5.506h-1.326v-.675l1.326-.583.59-1.976h.811v2.145h2.686v1.09h-2.686v5.446c0 .557.133.985.397 1.283.265.299.628.448 1.09.448zm5.62 0c.247 0 .486-.017.717-.05.23-.04.414-.08.549-.119v1.073c-.152.073-.377.132-.676.177-.292.05-.557.076-.793.076-1.79 0-2.686-.943-2.686-2.829v-5.506h-1.326v-.675l1.326-.583.591-1.976h.81v2.145h2.686v1.09h-2.685v5.446c0 .557.132.985.397 1.283.264.299.628.448 1.09.448zm6.54 1.157c-1.369 0-2.45-.417-3.243-1.25-.789-.833-1.183-1.99-1.183-3.47 0-1.492.366-2.677 1.098-3.556.738-.878 1.726-1.317 2.964-1.317 1.16 0 2.077.383 2.753 1.149.675.76 1.013 1.764 1.013 3.014v.887H61.6c.028 1.086.3 1.911.819 2.474.523.563 1.258.845 2.204.845.996 0 1.981-.209 2.955-.625v1.25a7.157 7.157 0 0 1-1.41.455c-.439.096-.97.144-1.596.144zm-.38-8.42c-.744 0-1.338.243-1.783.727-.439.484-.698 1.154-.776 2.01h4.838c0-.884-.197-1.56-.59-2.027-.395-.473-.958-.71-1.69-.71zm9.909-1.173c.41 0 .78.034 1.106.101l-.194 1.3A4.778 4.778 0 0 0 74 76.852c-.749 0-1.39.304-1.925.912-.53.608-.794 1.365-.794 2.272V85H69.88v-9.255h1.157l.16 1.714h.068c.344-.602.757-1.067 1.242-1.393a2.794 2.794 0 0 1 1.596-.49zm16.407 3.133c0 2.038-.555 3.597-1.664 4.678C87.742 84.462 86.151 85 84.075 85h-3.42V72.654h3.782c1.92 0 3.412.532 4.476 1.596s1.596 2.55 1.596 4.459zm-1.52.05c0-1.61-.406-2.823-1.216-3.639-.805-.816-2.004-1.224-3.597-1.224H82.09v9.863h1.748c1.711 0 2.998-.42 3.859-1.258.861-.845 1.292-2.092 1.292-3.741zm7.486 6.41c-1.368 0-2.45-.417-3.243-1.25-.788-.833-1.182-1.99-1.182-3.47 0-1.492.366-2.677 1.097-3.556.738-.878 1.726-1.317 2.965-1.317 1.16 0 2.077.383 2.752 1.149.676.76 1.014 1.764 1.014 3.014v.887h-6.376c.028 1.086.301 1.911.82 2.474.523.563 1.257.845 2.203.845.997 0 1.982-.209 2.956-.625v1.25a7.157 7.157 0 0 1-1.41.455c-.44.096-.971.144-1.596.144zm-.38-8.42c-.743 0-1.337.243-1.782.727-.44.484-.698 1.154-.777 2.01h4.839c0-.884-.197-1.56-.591-2.027-.395-.473-.958-.71-1.69-.71zM103.808 85l-3.512-9.255h1.503l1.993 5.489c.45 1.283.715 2.117.793 2.5h.068c.062-.299.256-.915.583-1.85.332-.94 1.072-2.987 2.22-6.14h1.504L105.447 85h-1.639zm10.053.169c-1.368 0-2.448-.417-3.242-1.25-.788-.833-1.182-1.99-1.182-3.47 0-1.492.365-2.677 1.097-3.556.738-.878 1.726-1.317 2.964-1.317 1.16 0 2.078.383 2.753 1.149.676.76 1.013 1.764 1.013 3.014v.887h-6.375c.028 1.086.301 1.911.819 2.474.524.563 1.258.845 2.204.845.996 0 1.982-.209 2.956-.625v1.25a7.17 7.17 0 0 1-1.411.455c-.439.096-.971.144-1.596.144zm-.38-8.42c-.743 0-1.337.243-1.781.727-.439.484-.698 1.154-.777 2.01h4.838c0-.884-.197-1.56-.591-2.027-.394-.473-.957-.71-1.689-.71zM120.57 85h-1.401V71.86h1.401V85zm10.467-4.636c0 1.509-.38 2.688-1.14 3.538-.76.845-1.81 1.267-3.15 1.267-.827 0-1.562-.194-2.204-.583-.641-.388-1.137-.945-1.486-1.672-.349-.726-.523-1.576-.523-2.55 0-1.509.377-2.683 1.131-3.521.754-.845 1.802-1.267 3.141-1.267 1.295 0 2.323.43 3.083 1.292.765.861 1.148 2.027 1.148 3.496zm-7.051 0c0 1.182.236 2.083.709 2.702.473.62 1.168.93 2.086.93.918 0 1.613-.308 2.086-.921.478-.62.718-1.523.718-2.711 0-1.177-.24-2.069-.718-2.677-.473-.614-1.174-.92-2.103-.92-.917 0-1.61.3-2.077.903-.467.603-.701 1.5-.701 2.694zm13.329 4.805a4.08 4.08 0 0 1-1.655-.33 3.15 3.15 0 0 1-1.25-1.03h-.101c.068.54.101 1.053.101 1.537v3.809h-1.401v-13.41h1.14l.194 1.267h.067c.361-.507.78-.873 1.259-1.098.478-.225 1.027-.338 1.646-.338 1.228 0 2.173.42 2.838 1.258.67.84 1.005 2.016 1.005 3.53 0 1.52-.341 2.702-1.022 3.547-.676.838-1.616 1.258-2.821 1.258zm-.202-8.402c-.946 0-1.63.261-2.052.785-.423.524-.639 1.357-.651 2.5v.312c0 1.3.217 2.232.651 2.795.433.557 1.128.836 2.085.836.8 0 1.425-.324 1.875-.971.456-.647.684-1.54.684-2.677 0-1.154-.228-2.038-.684-2.651-.45-.62-1.086-.93-1.908-.93zm9.917 8.402c-1.368 0-2.448-.417-3.242-1.25-.788-.833-1.182-1.99-1.182-3.47 0-1.492.366-2.677 1.097-3.556.738-.878 1.726-1.317 2.964-1.317 1.16 0 2.078.383 2.753 1.149.676.76 1.014 1.764 1.014 3.014v.887h-6.376c.028 1.086.301 1.911.819 2.474.524.563 1.258.845 2.204.845.997 0 1.982-.209 2.956-.625v1.25a7.17 7.17 0 0 1-1.411.455c-.439.096-.971.144-1.596.144zm-.38-8.42c-.743 0-1.337.243-1.781.727-.439.484-.698 1.154-.777 2.01h4.838c0-.884-.197-1.56-.591-2.027-.394-.473-.957-.71-1.689-.71zm9.91-1.173c.411 0 .78.034 1.106.101l-.194 1.3a4.782 4.782 0 0 0-1.013-.126c-.749 0-1.391.304-1.926.912-.529.608-.794 1.365-.794 2.272V85h-1.401v-9.255h1.157l.16 1.714h.068c.343-.602.757-1.067 1.241-1.393a2.794 2.794 0 0 1 1.596-.49z" fill="#fff"/>
    <g opacity=".8" clip-path="url(#mrhxfbz04b)">
        <g style="mix-blend-mode:multiply" filter="url(#52vhot7k0c)">
            <path d="M263.037 49.216v56.23a35.248 35.248 0 0 1-3.004 14.297 36.276 36.276 0 0 1-8.153 11.62 37.773 37.773 0 0 1-12.029 7.792 39.19 39.19 0 0 1-29.362 0 37.785 37.785 0 0 1-12.029-7.792 36.317 36.317 0 0 1-8.153-11.617 35.281 35.281 0 0 1-3.004-14.297V50.092c0-7.675 6.416-13.916 14.304-13.916 7.887 0 14.303 6.24 14.303 13.916v7.182a14.595 14.595 0 0 1 9.268 2.23 14.58 14.58 0 0 1 9.251-2.23v-8.058c0-7.676 6.417-13.918 14.304-13.918 7.887 0 14.304 6.242 14.304 13.918z" fill="#C1D2E0"/>
        </g>
        <path d="M259.737 45.916v56.232a35.281 35.281 0 0 1-3.004 14.297 36.314 36.314 0 0 1-8.153 11.62 37.773 37.773 0 0 1-12.029 7.792 39.218 39.218 0 0 1-29.362 0 37.773 37.773 0 0 1-12.029-7.792 36.332 36.332 0 0 1-8.153-11.617 35.281 35.281 0 0 1-3.004-14.297V46.794c0-7.676 6.415-13.916 14.304-13.916 7.888 0 14.304 6.24 14.304 13.916v7.181c.464-.043.936-.07 1.408-.07 2.786.002 5.513.8 7.859 2.3a14.576 14.576 0 0 1 7.853-2.3c.472 0 .944.027 1.409.07v-8.059c0-7.675 6.415-13.916 14.303-13.916 7.889 0 14.294 6.24 14.294 13.916z" fill="#fff"/>
        <path d="M245.436 36.618c-5.338 0-9.681 4.172-9.681 9.293v14.647a9.931 9.931 0 0 0-13.891 1.84 9.93 9.93 0 0 0-13.875-1.84V46.794c0-5.127-4.343-9.293-9.681-9.293-5.338 0-9.679 4.172-9.679 9.293v55.354a30.668 30.668 0 0 0 2.613 12.438 31.767 31.767 0 0 0 7.125 10.151 33.212 33.212 0 0 0 10.566 6.844 34.623 34.623 0 0 0 25.89 0 33.257 33.257 0 0 0 10.566-6.844 31.767 31.767 0 0 0 7.125-10.151 30.668 30.668 0 0 0 2.613-12.438V45.916c-.011-5.126-4.354-9.298-9.691-9.298zm-21.338 31.207c0-2.984 2.519-5.405 5.627-5.405 3.108 0 5.626 2.42 5.626 5.405V87.11c0 2.985-2.521 5.404-5.626 5.404a5.815 5.815 0 0 1-2.156-.41 8.941 8.941 0 0 0 .179-1.78c0-2.94-1.43-5.565-3.65-7.269V67.825zm-10.086-5.405c3.107 0 5.626 2.42 5.626 5.405V81.14a10.156 10.156 0 0 0-1.574-.122h-9.68V67.825c.003-2.984 2.521-5.405 5.628-5.405zm-21.337-15.626c0-2.983 2.519-5.402 5.626-5.402s5.626 2.418 5.626 5.402V81.02h-5.626a9.908 9.908 0 0 0-5.626 1.735v-35.96zm58.387 49.172v7.3c0 .089 0 .177-.007.265a5.32 5.32 0 0 1-.067.603c-1.062 14.56-13.693 26.054-29.12 26.054a29.84 29.84 0 0 1-17.765-5.789 29.01 29.01 0 0 1-2.877-2.43 28.089 28.089 0 0 1-5.766-7.863 27.014 27.014 0 0 1-2.785-11.965V90.318c0-2.986 2.519-5.405 5.626-5.405h19.766a5.797 5.797 0 0 1 2.25.45l.063.026.259.12.03.015c.077.04.153.08.229.123l.057.031c.082.047.162.095.241.143l.04.027c.07.046.143.092.204.143l.047.035c.076.054.143.111.221.17l.044.037c.064.053.126.107.186.161l.036.033c.068.063.134.128.199.193l.044.046c.059.063.116.126.173.19l.019.022a5.154 5.154 0 0 1 .216.269c.057.074.111.142.164.227.052.076.1.154.143.233a3.901 3.901 0 0 1 .185.332c.038.074.074.143.108.225a4.366 4.366 0 0 1 .132.314c0 .018.011.037.018.054.028.074.052.143.076.226 0 .023.016.047.023.073l.019.067.034.124.017.073.029.123.016.076.022.121.013.08.018.123c0 .026 0 .052.01.08.01.026.01.083.014.126s0 .05 0 .076l.008.143v.273a5.223 5.223 0 0 1-1.039 3.13 5.689 5.689 0 0 1-4.586 2.274h-11.357c-1.402 0-2.422 1.28-2.055 2.574a2.117 2.117 0 0 0 2.055 1.51h8.449c3.662 0 6.63 2.85 6.63 6.367v2.591a2.023 2.023 0 0 0 2.026 1.951 2.026 2.026 0 0 0 2.027-1.951v-2.584a10.064 10.064 0 0 0-3.441-7.538 9.648 9.648 0 0 0 3.593-2.964 9.98 9.98 0 0 0 3.755.728c5.336 0 9.679-4.17 9.679-9.293v-1.363l.406-32.522v-7.31c0-2.983 2.518-5.402 5.626-5.402 3.108 0 5.626 2.419 5.626 5.402v50.049l-.006.001z" fill="#5378FC"/>
    </g>
    <defs>
        <linearGradient id="h34vf561za" x1="143" y1="35" x2="-40.5" y2="235" gradientUnits="userSpaceOnUse">
            <stop stop-color="#5478F6"/>
            <stop offset="1" stop-color="#3C5199"/>
        </linearGradient>
        <clipPath id="mrhxfbz04b">
            <path fill="#fff" transform="translate(184 32)" d="M0 0h79.037v110H0z"/>
        </clipPath>
        <filter id="52vhot7k0c" x="179.155" y="27.15" width="92.031" height="123.007" filterUnits="userSpaceOnUse" color-interpolation-filters="sRGB">
            <feFlood flood-opacity="0" result="BackgroundImageFix"/>
            <feBlend in="SourceGraphic" in2="BackgroundImageFix" result="shape"/>
            <feGaussianBlur stdDeviation="4.074" result="effect1_foregroundBlur_13_355"/>
        </filter>
    </defs>
</svg>
