<svg width="85" height="35" viewBox="0 0 85 35" fill="none" xmlns="http://www.w3.org/2000/svg">
    <path fill-rule="evenodd" clip-rule="evenodd" d="M29.17 27.922V14.238c-.104-2.435-1.76-4.243-4.106-4.718-1.084-.22-2.21-.284-3.32-.318-1.715-.05-3.433-.013-5.238-.013V3.217H12.48v24.695h4.074V12.45c1.984 0 3.9-.059 5.808.022 1.181.052 2.087.74 2.432 1.906.252.857.394 1.779.407 2.674.046 3.344.018 10.565.018 10.869h3.95zm6.278.009c0-1.188-.016-6.866 0-10.186.002-.66.071-1.326.16-1.981.286-2.098 1.357-3.136 3.434-3.329.835-.077 1.676-.087 2.532-.128V9.193c-1.996.037-3.962-.175-5.885.367-2.199.617-3.631 2.006-4.052 4.326a13.763 13.763 0 0 0-.23 2.412v11.633h4.04z" fill="#000"/>
    <mask id="ny84u0pzxa" style="mask-type:alpha" maskUnits="userSpaceOnUse" x="0" y="3" width="11" height="25">
        <path fill-rule="evenodd" clip-rule="evenodd" d="M0 3.299h10.183v24.653H0V3.299z" fill="#fff"/>
    </mask>
    <g mask="url(#ny84u0pzxa)">
        <path fill-rule="evenodd" clip-rule="evenodd" d="M7.65 24.699c-2.076-.194-3.147-1.23-3.434-3.329a15.295 15.295 0 0 1-.16-1.982c-.006-1.308-.004-4.067 0-6.936h6.024v-3.18H4.06c.003-3.216.007-5.913-.004-5.973H.015C0 3.518-.01 17.174.014 20.836c.007.806.084 1.621.228 2.414.423 2.32 1.856 3.707 4.055 4.324 1.923.543 3.887.33 5.885.367v-3.115c-.857-.04-1.698-.05-2.533-.127z" fill="#000"/>
    </g>
    <mask id="674oyxissb" style="mask-type:alpha" maskUnits="userSpaceOnUse" x="64" y="9" width="21" height="20">
        <path fill-rule="evenodd" clip-rule="evenodd" d="M64.38 9.185h19.737v18.972H64.379V9.185z" fill="#fff"/>
    </mask>
    <g mask="url(#674oyxissb)">
        <path fill-rule="evenodd" clip-rule="evenodd" d="M64.38 9.204h3.82c.212 0 .507.323.596.555 1.617 4.26 5.255 13.962 5.437 14.401.457-.927 3.859-9.929 5.488-14.367.176-.472.394-.608.889-.608h3.507c-.07.24-4.707 11.7-6.956 17.26-.459 1.134-1.207 1.748-2.434 1.708a9.696 9.696 0 0 0-.802 0c-1.288.055-2.07-.586-2.548-1.772-1.767-4.385-6.415-15.741-6.998-17.177z" fill="#000"/>
    </g>
    <mask id="sj4tg7y7kc" style="mask-type:alpha" maskUnits="userSpaceOnUse" x="42" y="9" width="22" height="26">
        <path fill-rule="evenodd" clip-rule="evenodd" d="M42.689 9.238h20.519v24.824H42.689V9.238z" fill="#fff"/>
    </mask>
    <g mask="url(#sj4tg7y7kc)">
        <path fill-rule="evenodd" clip-rule="evenodd" d="M48.064 34.05c1.236 0 2.368-.024 3.504.012.474.015.708-.123.914-.59 3.449-7.801 6.926-15.593 10.396-23.389.112-.25.203-.511.33-.835-1.274 0-2.437.02-3.6-.01-.402-.008-.593.135-.752.506-.91 2.137-1.843 4.261-2.772 6.392-1.076 2.465-2.153 4.925-3.275 7.49-.293-.705-.553-1.306-.8-1.912-1.634-3.958-3.259-7.915-4.9-11.864-.098-.232-.336-.566-.519-.572-1.278-.05-2.556-.028-3.901-.028.074.209.11.346.165.475 2.474 5.615 4.932 11.24 7.447 16.834.42.94.536 1.69.019 2.648-.831 1.539-1.488 3.172-2.256 4.844z" fill="#000"/>
    </g>
    <mask id="9f366l0b4d" style="mask-type:alpha" maskUnits="userSpaceOnUse" x="20" y="0" width="65" height="8">
        <path fill-rule="evenodd" clip-rule="evenodd" d="M20.836 0h63.28v7.159h-63.28V0z" fill="#fff"/>
    </mask>
    <g mask="url(#9f366l0b4d)">
        <path fill-rule="evenodd" clip-rule="evenodd" d="m84.118 7.159-8.165-3.751-7.287-3.35a.62.62 0 0 0-.876.572v2.139c0 .325-.249.6-.57.625L46.049 5.113 20.836 7.159h63.282z" fill="#FF5000"/>
    </g>
    <path fill-rule="evenodd" clip-rule="evenodd" d="M80.283 27.27h.077a.188.188 0 0 0 .125-.038.154.154 0 0 0 .043-.115c0-.055-.015-.09-.042-.114a.22.22 0 0 0-.128-.032h-.075v.299zm.457-.157c0 .13-.057.216-.171.263l.264.45h-.235l-.215-.391h-.1v.39h-.211v-1.02h.292c.13 0 .224.025.285.076.06.052.09.128.09.232zm-1.043.201c0 .13.031.247.094.357a.68.68 0 0 0 .258.259.677.677 0 0 0 .35.096.698.698 0 0 0 .609-.358.712.712 0 0 0-.609-1.066.683.683 0 0 0-.35.094.706.706 0 0 0-.256.26.703.703 0 0 0-.096.358zm-.137 0a.84.84 0 0 1 .111-.424.799.799 0 0 1 .307-.31.795.795 0 0 1 .421-.115.8.8 0 0 1 .418.113.846.846 0 0 1 .42.736.85.85 0 0 1-.411.732.824.824 0 0 1-.854.001.843.843 0 0 1-.412-.733z" fill="#fff"/>
</svg>
